<?xml version="1.0" encoding="UTF-8" standalone="no"?>
<!DOCTYPE svg PUBLIC "-//W3C//DTD SVG 1.1//EN" "http://www.w3.org/Graphics/SVG/1.1/DTD/svg11.dtd">
<svg width="100%" height="100%" viewBox="0 0 1280 800" version="1.1" xmlns="http://www.w3.org/2000/svg" xmlns:xlink="http://www.w3.org/1999/xlink" xml:space="preserve" xmlns:serif="http://www.serif.com/" style="fill-rule:evenodd;clip-rule:evenodd;stroke-linejoin:round;stroke-miterlimit:1.41421;">
    <g transform="matrix(6.12323e-17,1,-1,6.12323e-17,240,124)">
        <path d="M35.594,250.824L35.651,250.591L35.745,250.373L40.188,241.95L46.126,230.791L55.934,212.52L59.882,205.217L60,205L59.897,205.225L56.424,212.764L47.691,231.574L42.328,243.02L39.27,249.481L49.376,249.325L55.269,249.27L60.635,249.25L65.794,249.263L71.121,249.302L80.63,249.423L79.172,246.36L74.681,236.802L66.45,219.056L60.101,205.22L60,205L60.116,205.213L67.375,218.594L76.633,235.826L81.585,245.154L84.309,250.346L84.407,250.574L84.465,250.817L84.481,251.067L84.455,251.317L84.387,251.56L84.278,251.79L84.131,251.998L83.951,252.18L83.741,252.329L83.508,252.441L83.259,252.513L83,252.541L82.115,252.558L71.121,252.698L65.794,252.737L60.635,252.75L55.269,252.73L49.376,252.675L37,252.484L36.75,252.458L36.632,252.425L36.51,252.389L36.286,252.28L36.085,252.136L35.911,251.961L35.771,251.76L35.667,251.539L35.602,251.305L35.578,251.064L35.594,250.824Z" style="fill:rgb(194,54,19);"/>
    </g>
    <g transform="matrix(8.78551e-17,1.43478,-1.43478,8.78551e-17,349.13,120.913)">
        <path d="M36.014,250.877L36.053,250.713L36.118,250.559L40.723,241.689L46.511,230.614L56.052,212.47L59.886,205.216L60,205L59.896,205.221L56.393,212.641L47.602,231.16L42.215,242.435L38.598,249.954L49.621,249.833L55.366,249.794L60.598,249.78L65.629,249.79L70.822,249.816L81.334,249.912L79.308,245.717L74.8,236.301L66.512,218.83L60.102,205.217L60,205L60.112,205.211L67.157,218.508L76.161,235.62L80.989,244.877L83.919,250.54L83.987,250.701L84.026,250.871L84.036,251.047L84.017,251.222L83.968,251.391L83.891,251.55L83.787,251.695L83.661,251.82L83.515,251.923L83.353,251.999L83.179,252.048L83,252.066L81.542,252.086L70.822,252.184L65.629,252.21L60.598,252.22L55.366,252.206L49.621,252.167L37.06,252.029L37,252.028L36.827,252.01L36.66,251.963L36.504,251.889L36.364,251.79L36.242,251.669L36.143,251.53L36.069,251.376L36.022,251.213L36.004,251.045L36.014,250.877Z" style="fill:rgb(14,25,36);"/>
    </g>
    <g transform="matrix(1.07822e-16,1.76087,-1.76087,1.07822e-16,430.978,118.848)">
        <path d="M36.195,250.899L36.225,250.765L36.278,250.639L40.952,241.578L46.675,230.539L56.102,212.449L59.887,205.215L60,205L59.896,205.219L56.379,212.588L47.564,230.984L42.167,242.185L38.307,250.152L49.726,250.049L55.409,250.017L60.585,250.006L65.561,250.014L70.698,250.035L81.302,250.115L81.638,250.119L79.366,245.444L74.851,236.087L66.539,218.734L60.102,205.215L60,205L60.111,205.211L67.064,218.471L75.959,235.533L80.736,244.759L83.752,250.624L83.806,250.756L83.838,250.895L83.846,251.038L83.829,251.181L83.789,251.319L83.726,251.449L83.641,251.566L83.538,251.668L83.419,251.751L83.287,251.813L83.146,251.851L83,251.866L81.302,251.885L70.698,251.965L65.561,251.986L60.585,251.994L55.409,251.983L49.726,251.951L37.301,251.839L37,251.835L36.86,251.821L36.724,251.783L36.597,251.723L36.482,251.643L36.383,251.545L36.302,251.432L36.241,251.307L36.202,251.174L36.187,251.037L36.195,250.899Z" style="fill:rgb(174,73,69);"/>
    </g>
</svg>
