<?xml version="1.0" encoding="UTF-8" standalone="no"?>
<!DOCTYPE svg PUBLIC "-//W3C//DTD SVG 1.1//EN" "http://www.w3.org/Graphics/SVG/1.1/DTD/svg11.dtd">
<svg width="100%" height="100%" viewBox="0 0 1280 800" version="1.1" xmlns="http://www.w3.org/2000/svg" xmlns:xlink="http://www.w3.org/1999/xlink" xml:space="preserve" xmlns:serif="http://www.serif.com/" style="fill-rule:evenodd;clip-rule:evenodd;stroke-linejoin:round;stroke-miterlimit:1.41421;">
    <g transform="matrix(0.6804,0,0,0.5,446.835,400)">
        <path d="M412.5,546L813,800L12,800L412.5,546Z" style="fill:rgb(127,176,221);"/>
    </g>
    <g transform="matrix(0.794007,0,0,0.42126,2.47191,462.992)">
        <path d="M412.5,546L813,800L12,800L412.5,546Z" style="fill:rgb(147,204,255);"/>
    </g>
    <g transform="matrix(0.6804,0,0,0.283465,772.835,573.228)">
        <path d="M412.5,546L813,800L12,800L412.5,546Z" style="fill:rgb(77,136,212);"/>
    </g>
    <path d="M0.841,162.012L1.29,162.437L1.744,162.864L2.201,163.291L2.661,163.719L3.125,164.149L3.592,164.579L4.062,165.01L4.536,165.442L5.014,165.875L5.495,166.308L5.979,166.743L6.467,167.179L6.958,167.615L7.452,168.053L7.95,168.491L8.452,168.93L8.956,169.37L9.465,169.811L9.976,170.253L10.491,170.696L11.009,171.139L11.531,171.584L12.056,172.029L12.584,172.476L13.116,172.923L13.651,173.371L14.189,173.82L14.73,174.269L15.275,174.72L15.824,175.171L16.375,175.623L16.93,176.077L17.488,176.531L18.05,176.985L18.614,177.441L19.182,177.897L19.754,178.355L20.328,178.813L20.906,179.272L21.487,179.732L22.072,180.192L22.659,180.654L23.25,181.116L23.844,181.579L24.441,182.043L25.042,182.508L25.646,182.973L26.253,183.44L26.863,183.907L27.476,184.375L28.093,184.843L28.712,185.313L29.335,185.783L29.962,186.254L30.591,186.726L31.223,187.199L31.859,187.672L32.498,188.146L33.14,188.621L33.785,189.097L34.433,189.574L35.084,190.051L35.739,190.529L36.396,191.008L37.057,191.487L37.721,191.968L38.388,192.449L39.058,192.931L39.731,193.413L40.407,193.897L41.086,194.381L41.769,194.865L42.454,195.351L43.143,195.837L43.834,196.324L44.529,196.812L45.227,197.3L45.927,197.79L46.631,198.279L47.338,198.77L48.048,199.261L48.761,199.753L49.476,200.246L50.195,200.74L50.917,201.234L51.642,201.729L52.37,202.224L53.101,202.72L53.835,203.217L54.571,203.715L55.311,204.213L56.054,204.712L56.8,205.212L57.548,205.712L58.3,206.213L59.054,206.715L59.812,207.218L60.572,207.721L61.336,208.224L62.102,208.729L62.871,209.234L63.643,209.74L64.418,210.246L65.196,210.753L65.977,211.261L66.761,211.769L67.547,212.278L68.337,212.787L69.129,213.298L69.924,213.809L70.722,214.32L71.523,214.832L72.327,215.345L73.133,215.858L73.943,216.372L74.755,216.887L75.57,217.402L76.388,217.918L77.209,218.435L78.032,218.952L78.858,219.469L79.688,219.988L80.519,220.507L81.354,221.026L82.192,221.546L83.032,222.067L83.875,222.588L84.721,223.11L85.569,223.632L86.42,224.155L87.274,224.679L88.131,225.203L88.991,225.728L89.853,226.253L90.718,226.779L91.586,227.306L92.456,227.833L93.329,228.36L94.205,228.889L95.083,229.417L95.965,229.946L96.849,230.476L97.735,231.007L98.624,231.538L99.516,232.069L100.411,232.601L101.308,233.134L102.208,233.667L103.11,234.2L104.016,234.734L104.923,235.269L105.834,235.804L106.747,236.34L107.662,236.876L108.581,237.413L109.502,237.95L110.425,238.488L111.351,239.026L112.28,239.565L113.211,240.104L114.145,240.644L115.081,241.184L116.02,241.725L116.962,242.266L117.906,242.808L118.853,243.35L119.802,243.893L120.753,244.436L121.708,244.98L122.665,245.524L123.624,246.068L124.586,246.614L125.55,247.159L126.517,247.705L127.486,248.252L128.458,248.799L129.432,249.346L130.409,249.894L131.389,250.442L132.37,250.991L133.355,251.54L134.341,252.09L135.33,252.64L136.322,253.19L137.316,253.741L138.312,254.293L139.311,254.845L140.313,255.397L141.317,255.949L142.323,256.503L143.331,257.056L144.342,257.61L145.356,258.164L146.372,258.719L147.39,259.274L148.41,259.83L149.433,260.386L150.459,260.942L151.486,261.499L152.516,262.056L153.549,262.614L154.583,263.172L155.621,263.73L156.66,264.289L157.702,264.848L158.746,265.407L159.792,265.967L160.841,266.528L161.892,267.088L162.945,267.649L164.001,268.211L165.059,268.772L166.119,269.334L167.182,269.897L168.246,270.46L170.383,271.586L172.528,272.714L174.683,273.844L176.846,274.974L179.018,276.107L181.2,277.24L183.39,278.375L185.588,279.511L187.796,280.648L190.012,281.786L192.237,282.926L194.47,284.067L196.712,285.209L198.962,286.352L201.221,287.496L203.489,288.641L205.764,289.788L208.048,290.935L210.341,292.083L212.641,293.233L214.95,294.383L217.267,295.535L219.592,296.687L221.925,297.84L224.266,298.995L226.615,300.15L228.972,301.306L231.337,302.462L233.709,303.62L236.09,304.778L238.478,305.937L240.874,307.097L243.277,308.258L245.688,309.419L248.107,310.581L250.533,311.744L252.967,312.907L255.408,314.071L257.857,315.236L260.313,316.401L262.776,317.567L265.246,318.733L267.724,319.9L270.209,321.067L272.701,322.235L275.2,323.403L277.706,324.572L280.219,325.741L282.739,326.911L285.266,328.08L287.799,329.251L290.34,330.421L292.887,331.592L295.441,332.763L298.002,333.934L300.569,335.106L303.143,336.278L305.723,337.45L308.31,338.622L310.904,339.795L313.503,340.967L316.11,342.14L318.722,343.312L321.341,344.485L323.966,345.658L326.597,346.831L329.234,348.004L331.877,349.177L334.527,350.35L337.182,351.523L339.844,352.695L342.511,353.868L345.184,355.04L347.863,356.213L350.548,357.385L353.238,358.557L355.934,359.729L358.636,360.901L361.344,362.072L364.057,363.243L366.775,364.414L369.499,365.584L372.229,366.755L374.963,367.924L377.703,369.094L380.449,370.263L383.199,371.432L385.955,372.6L388.716,373.768L391.482,374.935L394.254,376.102L397.03,377.268L399.811,378.434L402.597,379.599L405.388,380.763L408.184,381.927L410.984,383.091L413.79,384.253L416.6,385.415L419.415,386.577L422.234,387.737L425.058,388.897L427.886,390.056L430.719,391.215L433.557,392.372L436.399,393.529L439.245,394.685L442.095,395.84L444.95,396.994L447.809,398.147L450.672,399.3L453.539,400.451L456.41,401.601L459.286,402.751L462.165,403.899L465.048,405.047L467.936,406.193L470.827,407.338L473.722,408.483L476.62,409.626L479.523,410.768L482.429,411.908L485.338,413.048L488.252,414.186L491.168,415.323L494.089,416.459L497.012,417.594L499.94,418.727L502.87,419.859L505.804,420.99L508.741,422.12L511.682,423.248L514.625,424.374L517.572,425.499L520.522,426.623L523.475,427.746L526.431,428.866L529.39,429.986L532.351,431.104L535.316,432.22L538.283,433.335L541.254,434.448L544.227,435.559L547.203,436.669L550.181,437.778L553.162,438.884L556.145,439.989L559.132,441.092L562.12,442.194L565.111,443.294L568.105,444.392L571.1,445.488L574.098,446.582L577.098,447.675L580.101,448.765L583.106,449.854L586.112,450.941L589.121,452.026L592.132,453.109L595.145,454.19L598.16,455.269L601.176,456.346L604.195,457.421L607.215,458.494L610.237,459.565L613.261,460.634L616.287,461.701L619.314,462.765L622.342,463.828L625.373,464.888L628.404,465.946L631.437,467.002L634.472,468.055L637.508,469.107L640.545,470.156L643.584,471.202L646.623,472.247L649.664,473.289L652.706,474.328L655.75,475.366L658.794,476.401L661.839,477.433L664.885,478.463L667.932,479.491L670.98,480.516L674.029,481.538L677.078,482.558L680.129,483.576L683.18,484.59L686.231,485.603L689.283,486.612L692.336,487.619L695.389,488.624L698.443,489.625L701.497,490.624L704.552,491.62L707.607,492.614L710.662,493.605L713.717,494.592L716.773,495.578L719.828,496.56L722.884,497.539L725.94,498.516L728.996,499.489L732.052,500.46L735.108,501.428L738.163,502.392L741.219,503.354L744.274,504.313L747.329,505.269L750.384,506.222L753.439,507.171L756.493,508.118L759.546,509.061L762.599,510.002L765.652,510.939L768.704,511.873L771.756,512.804L774.806,513.731L777.857,514.655L780.906,515.577L783.955,516.494L787.002,517.409L790.049,518.32L793.095,519.228L796.14,520.132L799.184,521.033L802.227,521.931L805.269,522.825L808.31,523.716L809.83,524.16L811.349,524.603L812.869,525.046L814.388,525.487L815.906,525.928L817.425,526.368L818.943,526.806L820.46,527.244L821.978,527.681L823.495,528.118L825.011,528.553L826.527,528.987L828.043,529.421L829.559,529.853L831.074,530.285L832.589,530.716L834.103,531.146L835.617,531.575L837.131,532.003L838.644,532.43L840.157,532.856L841.669,533.281L843.181,533.706L844.693,534.129L846.204,534.551L847.715,534.973L849.225,535.394L850.735,535.813L852.244,536.232L853.753,536.65L855.261,537.067L856.769,537.482L858.276,537.897L859.783,538.311L861.29,538.724L862.796,539.136L864.301,539.547L865.806,539.958L867.311,540.367L868.815,540.775L870.318,541.182L871.821,541.588L873.324,541.994L874.825,542.398L876.327,542.801L877.827,543.204L879.328,543.605L880.827,544.005L882.326,544.404L883.825,544.803L885.323,545.2L886.82,545.596L888.317,545.992L889.813,546.386L891.309,546.779L892.804,547.172L894.298,547.563L895.792,547.953L897.285,548.342L898.777,548.731L900.269,549.118L901.76,549.504L903.251,549.889L904.741,550.273L906.23,550.656L907.719,551.038L909.207,551.419L910.694,551.799L912.181,552.178L913.666,552.556L915.152,552.932L916.636,553.308L918.12,553.683L919.603,554.056L921.086,554.429L922.567,554.8L924.048,555.171L925.528,555.54L927.008,555.908L928.487,556.275L929.965,556.641L931.442,557.006L932.919,557.37L934.394,557.733L935.869,558.095L937.344,558.456L938.817,558.815L940.29,559.174L941.762,559.531L943.233,559.887L944.703,560.242L946.172,560.596L947.641,560.949L949.109,561.301L950.576,561.652L952.042,562.001L953.507,562.35L954.972,562.697L956.436,563.043L957.898,563.388L959.36,563.732L960.822,564.075L962.282,564.417L963.741,564.757L965.2,565.096L966.657,565.435L968.114,565.772L969.57,566.108L971.025,566.442L972.479,566.776L973.932,567.108L975.384,567.44L976.835,567.77L978.286,568.099L979.735,568.427L981.183,568.753L982.631,569.079L984.077,569.403L985.523,569.726L986.968,570.048L988.411,570.369L989.854,570.688L991.296,571.006L992.736,571.324L994.176,571.639L995.615,571.954L997.053,572.268L998.489,572.58L999.925,572.891L1001.36,573.201L1002.79,573.51L1004.23,573.817L1005.66,574.123L1007.09,574.429L1008.52,574.732L1009.95,575.035L1011.37,575.336L1012.8,575.636L1014.23,575.935L1015.65,576.233L1017.07,576.529L1018.5,576.825L1019.92,577.119L1021.34,577.411L1022.75,577.703L1024.17,577.993L1025.59,578.282L1027,578.569L1028.42,578.856L1029.83,579.141L1031.24,579.425L1032.65,579.708L1034.06,579.989L1035.47,580.269L1036.88,580.548L1038.29,580.825L1039.69,581.102L1041.1,581.376L1042.5,581.65L1043.9,581.923L1045.3,582.194L1046.7,582.463L1048.1,582.732L1049.49,582.999L1050.89,583.265L1052.28,583.53L1053.68,583.793L1055.07,584.055L1056.46,584.315L1057.85,584.575L1059.24,584.833L1060.62,585.09L1062.01,585.345L1063.39,585.599L1064.78,585.852L1066.16,586.103L1067.54,586.353L1068.92,586.602L1070.3,586.849L1071.67,587.095L1073.05,587.34L1074.42,587.583L1075.79,587.825L1077.16,588.066L1078.54,588.305L1079.9,588.543L1081.27,588.78L1082.64,589.015L1084,589.249L1085.37,589.481L1086.73,589.712L1088.09,589.942L1089.45,590.17L1090.81,590.397L1092.16,590.623L1093.52,590.847L1094.87,591.07L1096.22,591.291L1097.57,591.511L1098.92,591.73L1100.27,591.947L1101.62,592.163L1102.96,592.377L1104.31,592.59L1105.65,592.802L1106.99,593.012L1108.33,593.221L1109.67,593.428L1111,593.634L1112.34,593.839L1113.67,594.042L1115,594.244L1116.33,594.444L1117.66,594.643L1118.99,594.84L1120.32,595.036L1121.64,595.231L1122.96,595.424L1124.29,595.615L1125.61,595.805L1126.92,595.994L1128.24,596.181L1129.56,596.367L1130.87,596.552L1132.18,596.735L1133.49,596.916L1134.8,597.096L1136.11,597.274L1137.42,597.451L1138.72,597.627L1140.03,597.801L1141.33,597.974L1142.63,598.145L1143.92,598.314L1145.22,598.482L1146.52,598.649L1147.81,598.814L1149.1,598.978L1150.39,599.14L1151.68,599.301L1152.96,599.46L1154.25,599.618L1155.53,599.774L1156.82,599.928L1158.1,600.081L1159.37,600.233L1160.65,600.383L1161.93,600.532L1163.2,600.679L1164.47,600.824L1165.74,600.968L1167.01,601.111L1168.28,601.251L1169.54,601.391L1170.8,601.529L1172.07,601.665L1173.33,601.8L1174.58,601.933L1175.84,602.064L1177.09,602.195L1178.35,602.323L1179.6,602.45L1180.85,602.575L1182.09,602.699L1183.34,602.822L1184.58,602.942L1185.83,603.061L1187.07,603.179L1188.31,603.295L1189.54,603.409L1190.78,603.522L1192.01,603.633L1193.24,603.743L1194.47,603.851L1195.7,603.958L1196.92,604.062L1198.15,604.166L1199.37,604.267L1200.59,604.367L1201.81,604.466L1203.02,604.563L1204.24,604.658L1205.45,604.752L1206.66,604.844L1207.87,604.934L1209.08,605.023L1210.28,605.11L1211.49,605.195L1212.69,605.279L1213.89,605.362L1215.08,605.442L1216.28,605.521L1217.47,605.599L1218.66,605.674L1219.86,605.748L1221.04,605.821L1222.23,605.891L1223.41,605.961L1224.59,606.028L1225.77,606.094L1226.95,606.158L1228.13,606.22L1229.3,606.281L1230.47,606.34L1231.64,606.398L1232.81,606.453L1233.98,606.508L1235.14,606.56L1236.3,606.611L1237.46,606.66L1238.62,606.707L1239.78,606.753L1240.93,606.797L1242.08,606.839L1243.23,606.88L1244.38,606.919L1245.52,606.956L1246.67,606.991L1247.81,607.025L1248.95,607.057L1250.08,607.088L1251.22,607.116L1252.35,607.143L1253.48,607.168L1254.61,607.192L1255.74,607.214L1256.86,607.234L1257.99,607.252L1259.11,607.268L1260.22,607.283L1261.34,607.296L1262.45,607.308L1263.56,607.317L1264.67,607.325L1265.78,607.331L1266.88,607.336L1267.99,607.338L1269.09,607.339L1270.19,607.338L1271.28,607.335L1272.38,607.331L1273.47,607.325L1274.56,607.317L1275.65,607.307L1276.73,607.295L1277.81,607.282L1278.89,607.267L1279.97,607.25L1279.98,607.25L1281.22,607.746L1281.75,608.964L1281.75,608.984L1281.25,610.218L1280.04,610.75L1280.03,610.75L1278.94,610.765L1277.86,610.778L1276.77,610.79L1275.68,610.799L1274.58,610.807L1273.49,610.813L1272.39,610.818L1271.29,610.82L1270.19,610.821L1269.09,610.82L1267.98,610.818L1266.87,610.813L1265.76,610.807L1264.65,610.799L1263.53,610.789L1262.42,610.777L1261.3,610.764L1260.18,610.749L1259.05,610.732L1257.93,610.713L1256.8,610.693L1255.67,610.671L1254.54,610.647L1253.41,610.622L1252.27,610.595L1251.13,610.566L1249.99,610.535L1248.85,610.502L1247.71,610.468L1246.56,610.432L1245.41,610.395L1244.26,610.355L1243.11,610.314L1241.95,610.271L1240.8,610.227L1239.64,610.181L1238.48,610.133L1237.32,610.083L1236.15,610.032L1234.99,609.979L1233.82,609.925L1232.65,609.868L1231.48,609.81L1230.3,609.751L1229.12,609.689L1227.95,609.626L1226.77,609.561L1225.58,609.495L1224.4,609.427L1223.21,609.357L1222.03,609.286L1220.84,609.213L1219.64,609.138L1218.45,609.062L1217.25,608.984L1216.06,608.904L1214.86,608.823L1213.65,608.74L1212.45,608.655L1211.25,608.569L1210.04,608.481L1208.83,608.391L1207.62,608.3L1206.4,608.207L1205.19,608.113L1203.97,608.017L1202.76,607.919L1201.54,607.82L1200.31,607.719L1199.09,607.617L1197.86,607.513L1196.64,607.407L1195.41,607.3L1194.17,607.191L1192.94,607.08L1191.71,606.968L1190.47,606.854L1189.23,606.739L1187.99,606.622L1186.75,606.504L1185.51,606.384L1184.26,606.262L1183.01,606.139L1181.76,606.014L1180.51,605.888L1179.26,605.76L1178.01,605.63L1176.75,605.499L1175.49,605.367L1174.23,605.232L1172.97,605.097L1171.71,604.959L1170.44,604.82L1169.18,604.68L1167.91,604.538L1166.64,604.395L1165.37,604.25L1164.1,604.103L1162.82,603.955L1161.54,603.805L1160.27,603.654L1158.99,603.502L1157.7,603.347L1156.42,603.192L1155.14,603.035L1153.85,602.876L1152.56,602.716L1151.27,602.554L1149.98,602.39L1148.69,602.226L1147.39,602.059L1146.1,601.892L1144.8,601.722L1143.5,601.552L1142.2,601.379L1140.9,601.206L1139.59,601.03L1138.29,600.854L1136.98,600.675L1135.67,600.496L1134.36,600.315L1133.05,600.132L1131.74,599.948L1130.42,599.762L1129.1,599.575L1127.79,599.387L1126.46,599.197L1125.14,599.005L1123.82,598.812L1122.5,598.618L1121.17,598.422L1119.85,598.225L1118.52,598.027L1117.19,597.826L1115.85,597.625L1114.52,597.422L1113.19,597.218L1111.85,597.012L1110.51,596.804L1109.17,596.596L1107.83,596.386L1106.49,596.174L1105.15,595.961L1103.8,595.747L1102.46,595.531L1101.11,595.314L1099.76,595.095L1098.41,594.875L1097.06,594.654L1095.71,594.431L1094.35,594.207L1093,593.981L1091.64,593.754L1090.28,593.526L1088.92,593.296L1087.56,593.065L1086.2,592.833L1084.83,592.599L1083.47,592.364L1082.1,592.127L1080.73,591.889L1079.36,591.65L1077.99,591.409L1076.62,591.167L1075.25,590.923L1073.87,590.679L1072.5,590.433L1071.12,590.185L1069.74,589.936L1068.36,589.686L1066.98,589.434L1065.6,589.182L1064.21,588.927L1062.83,588.672L1061.44,588.415L1060.05,588.157L1058.66,587.897L1057.28,587.636L1055.88,587.374L1054.49,587.111L1053.1,586.846L1051.7,586.58L1050.31,586.313L1048.91,586.044L1047.51,585.774L1046.11,585.502L1044.71,585.23L1043.31,584.956L1041.9,584.681L1040.5,584.404L1039.1,584.126L1037.69,583.847L1036.28,583.567L1034.87,583.285L1033.46,583.002L1032.05,582.718L1030.64,582.433L1029.22,582.146L1027.81,581.858L1026.39,581.569L1024.98,581.278L1023.56,580.986L1022.14,580.693L1020.72,580.399L1019.3,580.103L1017.87,579.807L1016.45,579.508L1015.03,579.209L1013.6,578.909L1012.17,578.607L1010.75,578.304L1009.32,578L1007.89,577.694L1006.46,577.387L1005.02,577.079L1003.59,576.77L1002.16,576.46L1000.72,576.148L999.285,575.836L997.848,575.522L996.41,575.206L994.971,574.89L993.531,574.572L992.09,574.253L990.648,573.933L989.205,573.612L987.761,573.29L986.316,572.966L984.87,572.641L983.423,572.315L981.975,571.988L980.526,571.66L979.077,571.33L977.626,571L976.174,570.668L974.722,570.335L973.268,570.001L971.814,569.665L970.359,569.329L968.903,568.991L967.446,568.652L965.988,568.312L964.529,567.971L963.069,567.629L961.609,567.285L960.147,566.941L958.685,566.595L957.222,566.248L955.758,565.9L954.293,565.551L952.828,565.201L951.361,564.85L949.894,564.497L948.426,564.144L946.957,563.789L945.487,563.433L944.017,563.076L942.545,562.718L941.073,562.359L939.6,561.999L938.127,561.637L936.652,561.275L935.177,560.911L933.701,560.546L932.224,560.181L930.747,559.814L929.269,559.446L927.79,559.077L926.31,558.707L924.829,558.336L923.348,557.963L921.866,557.59L920.384,557.216L918.9,556.84L917.416,556.464L915.931,556.086L914.446,555.707L912.96,555.328L911.473,554.947L909.986,554.565L908.498,554.182L907.009,553.798L905.519,553.413L904.029,553.027L902.538,552.64L901.047,552.252L899.555,551.863L898.062,551.473L896.569,551.082L895.075,550.69L893.581,550.297L892.085,549.902L890.59,549.507L889.093,549.111L887.596,548.714L886.099,548.315L884.601,547.916L883.102,547.516L881.603,547.114L880.103,546.712L878.603,546.309L877.102,545.905L875.6,545.499L874.098,545.093L872.596,544.686L871.093,544.278L869.589,543.868L868.085,543.458L866.58,543.047L865.075,542.635L863.569,542.222L862.063,541.808L860.557,541.393L859.049,540.977L857.542,540.56L856.034,540.142L854.525,539.723L853.016,539.303L851.507,538.883L849.997,538.461L848.486,538.038L846.976,537.615L845.464,537.19L843.953,536.765L842.441,536.338L840.928,535.911L839.415,535.483L837.902,535.054L836.388,534.624L834.874,534.193L833.359,533.761L831.844,533.328L830.329,532.894L828.813,532.46L827.297,532.024L825.781,531.588L824.264,531.15L822.747,530.712L821.229,530.273L819.712,529.833L818.193,529.392L816.675,528.95L815.156,528.507L813.637,528.064L812.118,527.619L810.598,527.174L809.078,526.728L807.557,526.281L804.516,525.384L801.473,524.484L798.429,523.58L795.384,522.673L792.339,521.763L789.292,520.849L786.244,519.932L783.196,519.011L780.146,518.088L777.096,517.161L774.045,516.23L770.994,515.297L767.942,514.36L764.889,513.42L761.836,512.477L758.782,511.531L755.728,510.581L752.673,509.629L749.618,508.673L746.563,507.715L743.507,506.753L740.452,505.788L737.396,504.82L734.339,503.85L731.283,502.876L728.227,501.9L725.171,500.92L722.114,499.938L719.058,498.952L716.002,497.964L712.946,496.973L709.89,495.979L706.835,494.983L703.78,493.983L700.725,492.981L697.671,491.976L694.617,490.969L691.563,489.959L688.51,488.946L685.458,487.93L682.406,486.912L679.355,485.891L676.305,484.868L673.255,483.842L670.206,482.814L667.158,481.783L664.111,480.749L661.065,479.714L658.019,478.675L654.975,477.635L651.932,476.591L648.89,475.546L645.849,474.498L642.809,473.448L639.771,472.395L636.733,471.34L633.697,470.283L630.663,469.224L627.63,468.162L624.598,467.098L621.568,466.032L618.539,464.964L615.512,463.893L612.487,462.821L609.463,461.746L606.441,460.669L603.421,459.591L600.403,458.51L597.386,457.427L594.372,456.342L591.359,455.255L588.348,454.166L585.34,453.076L582.333,451.983L579.329,450.889L576.326,449.792L573.326,448.694L570.329,447.594L567.333,446.492L564.34,445.388L561.349,444.283L558.361,443.175L555.375,442.066L552.392,440.956L549.411,439.843L546.433,438.729L543.458,437.614L540.485,436.496L537.515,435.378L534.548,434.257L531.583,433.135L528.622,432.012L525.664,430.887L522.708,429.76L519.755,428.632L516.806,427.503L513.86,426.372L510.916,425.239L507.976,424.106L505.04,422.971L502.106,421.834L499.176,420.697L496.249,419.558L493.326,418.417L490.406,417.276L487.49,416.133L484.577,414.989L481.668,413.844L478.762,412.698L475.86,411.55L472.962,410.401L470.068,409.252L467.177,408.101L464.29,406.949L461.408,405.796L458.529,404.642L455.654,403.487L452.783,402.331L449.916,401.174L447.054,400.016L444.195,398.858L441.341,397.698L438.491,396.537L435.646,395.376L432.804,394.214L429.968,393.051L427.135,391.887L424.307,390.722L421.484,389.557L418.665,388.391L415.851,387.224L413.041,386.057L410.237,384.889L407.437,383.72L404.641,382.55L401.851,381.38L399.065,380.21L396.285,379.039L393.509,377.867L390.739,376.695L387.973,375.522L385.213,374.349L382.458,373.176L379.707,372.002L376.963,370.827L374.223,369.653L371.489,368.477L368.76,367.302L366.037,366.126L363.319,364.95L360.607,363.774L357.9,362.597L355.199,361.42L352.503,360.243L349.813,359.066L347.129,357.888L344.451,356.711L341.778,355.533L339.111,354.355L336.451,353.177L333.796,351.999L331.147,350.821L328.504,349.643L325.868,348.465L323.237,347.287L320.613,346.109L317.995,344.931L315.383,343.753L312.777,342.575L310.178,341.398L307.585,340.22L304.999,339.043L302.419,337.866L299.846,336.689L297.279,335.512L294.719,334.336L292.166,333.16L289.619,331.984L287.079,330.808L284.546,329.633L282.02,328.458L279.5,327.284L276.988,326.11L274.483,324.936L271.984,323.763L269.493,322.59L267.009,321.418L264.531,320.246L262.062,319.075L259.599,317.904L257.144,316.734L254.696,315.565L252.255,314.396L249.822,313.227L247.396,312.06L244.978,310.893L242.567,309.727L240.164,308.561L237.769,307.397L235.381,306.233L233.001,305.069L230.629,303.907L228.265,302.745L225.909,301.585L223.56,300.425L221.22,299.266L218.887,298.108L216.563,296.951L214.246,295.795L211.938,294.639L209.638,293.485L207.346,292.332L205.062,291.18L202.787,290.029L200.52,288.879L198.262,287.73L196.012,286.582L193.77,285.436L191.537,284.29L189.313,283.146L187.097,282.003L184.89,280.861L182.692,279.721L180.502,278.581L178.321,277.443L176.149,276.307L173.986,275.171L171.832,274.037L169.687,272.905L167.551,271.774L166.486,271.209L165.424,270.644L164.364,270.08L163.306,269.516L162.251,268.952L161.197,268.389L160.147,267.826L159.098,267.263L158.052,266.701L157.008,266.14L155.966,265.578L154.927,265.017L153.89,264.457L152.855,263.896L151.823,263.337L150.793,262.777L149.765,262.218L148.74,261.66L147.717,261.101L146.697,260.544L145.679,259.986L144.663,259.429L143.65,258.873L142.639,258.316L141.63,257.761L140.624,257.205L139.62,256.651L138.619,256.096L137.62,255.542L136.624,254.988L135.63,254.435L134.638,253.883L133.649,253.33L132.663,252.778L131.679,252.227L130.697,251.676L129.718,251.126L128.741,250.576L127.766,250.026L126.795,249.477L125.825,248.928L124.859,248.38L123.894,247.832L122.932,247.285L121.973,246.738L121.016,246.192L120.062,245.646L119.11,245.101L118.161,244.556L117.215,244.011L116.27,243.467L115.329,242.924L114.39,242.381L113.454,241.839L112.52,241.297L111.588,240.755L110.66,240.214L109.734,239.674L108.81,239.134L107.889,238.595L106.971,238.056L106.055,237.518L105.142,236.98L104.232,236.442L103.324,235.906L102.418,235.369L101.516,234.834L100.616,234.298L99.719,233.764L98.824,233.23L97.932,232.696L97.043,232.163L96.156,231.63L95.272,231.099L94.391,230.567L93.512,230.036L92.636,229.506L91.763,228.976L90.892,228.447L90.025,227.919L89.16,227.39L88.297,226.863L87.438,226.336L86.581,225.81L85.726,225.284L84.875,224.759L84.026,224.234L83.18,223.71L82.337,223.187L81.497,222.664L80.659,222.142L79.824,221.62L78.992,221.099L78.163,220.579L77.336,220.059L76.512,219.54L75.692,219.021L74.873,218.503L74.058,217.986L73.246,217.469L72.436,216.953L71.629,216.438L70.825,215.923L70.024,215.408L69.226,214.895L68.43,214.382L67.638,213.869L66.848,213.358L66.061,212.847L65.277,212.336L64.496,211.826L63.718,211.317L62.942,210.809L62.17,210.301L61.4,209.794L60.634,209.287L59.87,208.782L59.109,208.276L58.351,207.772L57.597,207.268L56.845,206.765L56.095,206.262L55.349,205.76L54.606,205.259L53.866,204.759L53.129,204.259L52.395,203.76L51.663,203.262L50.935,202.764L50.21,202.267L49.487,201.771L48.768,201.275L48.052,200.78L47.338,200.286L46.628,199.792L45.921,199.3L45.216,198.808L44.515,198.316L43.817,197.826L43.122,197.336L42.43,196.847L41.74,196.358L41.054,195.87L40.371,195.383L39.692,194.897L39.015,194.412L38.341,193.927L37.67,193.443L37.003,192.96L36.338,192.477L35.677,191.995L35.019,191.514L34.364,191.034L33.712,190.555L33.063,190.076L32.417,189.598L31.774,189.121L31.135,188.644L30.498,188.168L29.865,187.693L29.235,187.219L28.608,186.746L27.985,186.273L27.364,185.802L26.747,185.331L26.133,184.86L25.522,184.391L24.914,183.922L24.309,183.455L23.708,182.988L23.11,182.521L22.515,182.056L21.923,181.591L21.335,181.128L20.749,180.665L20.167,180.202L19.588,179.741L19.013,179.28L18.441,178.821L17.872,178.362L17.306,177.904L16.743,177.447L16.184,176.99L15.628,176.535L15.076,176.08L14.526,175.626L13.98,175.173L13.438,174.721L12.898,174.269L12.362,173.819L11.829,173.369L11.3,172.921L10.774,172.473L10.251,172.026L9.732,171.579L9.215,171.134L8.703,170.689L8.193,170.246L7.687,169.803L7.185,169.361L6.685,168.92L6.19,168.48L5.697,168.041L5.208,167.603L4.722,167.165L4.24,166.729L3.761,166.293L3.286,165.858L2.814,165.424L2.345,164.991L1.88,164.559L1.418,164.128L0.96,163.698L0.505,163.269L0.054,162.84L-0.394,162.413L-0.413,161.606L0.394,161.587L0.841,162.012Z" style="fill:url(#_Linear1);"/>
    <defs>
        <linearGradient id="_Linear1" x1="0" y1="0" x2="1" y2="0" gradientUnits="userSpaceOnUse" gradientTransform="matrix(1058,377,-377,1058,130,251)"><stop offset="0" style="stop-color:rgb(182,207,230);stop-opacity:1"/><stop offset="1" style="stop-color:rgb(48,117,180);stop-opacity:1"/></linearGradient>
    </defs>
</svg>
